<svg width="395" height="345" viewBox="0 0 395 345" fill="none" xmlns="http://www.w3.org/2000/svg">
<rect width="380" height="287" fill="#FAE9E0"/>
<path d="M281.835 280.785C224.235 320.785 158.502 296.452 132.835 279.285H132.335C132.002 278.618 131.235 276.885 130.835 275.285C130.564 274.199 128.129 271.825 125.81 269.785M281.835 280.785C259.335 295.285 198.535 314.985 135.335 277.785M281.835 280.785C226.235 318.385 161.002 298.785 135.335 284.285V277.785M281.835 280.785L281.335 280.285M135.335 277.785L131.835 274.785L127.835 270.285L125.81 269.785M321.335 274.285L315.835 278.285C313.835 273.085 291.669 277.118 280.835 279.785L281.335 280.285M321.335 274.285C326.669 275.118 336.035 278.485 330.835 285.285C324.502 290.285 304.735 301.185 276.335 304.785C251.169 309.118 189.935 315.185 146.335 304.785C107.335 297.785 47.4355 280.685 119.835 268.285L122.835 267.285M321.335 274.285C311.735 271.485 300.002 266.118 295.335 263.785M122.835 267.285C123.639 267.928 124.711 268.819 125.81 269.785M122.835 267.285L114.579 255.785M108.835 247.785C63.5021 252.118 -11.1646 270.785 52.8354 310.785C89.6688 331.118 196.835 362.685 330.835 326.285C381.669 308.118 448.535 266.885 309.335 247.285M108.835 247.785C78.8354 197.385 77.6688 137.785 80.8354 114.285M108.835 247.785L114.579 255.785M309.335 247.285L321.835 219.785M309.335 247.285L302.335 255.535M281.335 280.285L295.335 263.785M295.335 263.785L302.335 255.535M315.835 274.785L296.335 266.785L288.835 275.785L304.835 272.785L306.835 273.785H308.335L297.335 269.785L295.335 270.785L293.835 272.785L297.335 272.285M321.835 219.785C351.002 216.618 405.435 199.585 389.835 156.785C385.502 146.952 369.635 129.985 340.835 140.785M321.835 219.785C323.365 217.155 324.82 213.93 326.196 210.285M340.835 140.785C340.497 143.776 340.046 147.338 339.486 151.285M340.835 140.785L339.486 151.285M326.196 210.285C326.755 208.802 327.302 207.249 327.835 205.638M326.196 210.285C327.447 210.062 328.961 209.763 330.607 209.401M327.835 205.638L350.835 202.285C351.169 200.785 351.235 198.685 348.835 202.285C346.894 205.197 337.566 207.868 330.607 209.401M327.835 205.638C328.197 204.546 328.552 203.427 328.901 202.285M328.901 202.285L330.607 209.401M328.901 202.285C333.027 188.792 336.268 172.103 338.439 158.285M328.901 202.285C337.185 201.999 350.208 199.585 359.835 193.077M338.439 158.285C364.123 152.685 371.738 164.285 372.335 170.785C372.335 176.797 370.519 181.742 367.568 185.785M338.439 158.285C338.822 155.852 339.171 153.507 339.486 151.285M339.486 151.285C344.769 150.285 355.635 148.585 356.835 149.785M339.486 151.285V114.285M367.568 185.785C370.574 188.952 373.463 194.685 360.962 192.285M367.568 185.785C366.741 186.918 365.825 187.98 364.835 188.975M360.962 192.285C362.343 191.275 363.643 190.174 364.835 188.975M360.962 192.285C360.592 192.555 360.216 192.819 359.835 193.077M364.835 188.975C367.169 191.106 369.435 194.91 359.835 193.077M339.486 114.285C313.207 143.885 240.103 148.285 206.835 146.785C178.169 148.452 112.835 144.285 80.8354 114.285M339.486 114.285C339.989 111.277 339.043 107.601 335.82 103.785M80.8354 114.285C79.603 111.441 80.2688 107.723 84.4112 103.785M90.8354 165.285C99.6688 202.785 126.135 278.285 161.335 280.285M335.82 103.785C325.47 91.5313 291.631 77.8449 206.835 80.285C127.263 82.5749 94.8333 93.877 84.4112 103.785M335.82 103.785C334.346 105.7 332.157 107.913 329.211 110.285M84.4112 103.785C85.5882 105.896 87.067 107.894 88.8105 109.785M88.8105 109.785C95.6522 104.452 112.135 94.285 123.335 96.285M88.8105 109.785C95.8334 117.403 107.151 123.281 120.335 127.766M172.335 88.785C180.335 87.785 197.735 85.985 203.335 86.785M214.835 86.785C224.835 86.6184 245.035 86.785 245.835 88.785M120.335 127.766C148.54 137.36 185.291 140.575 206.835 140.785C248.604 140.785 279.223 134.128 300.335 126.001M120.335 127.766C143.002 118.75 210.735 105.774 300.335 126.001M300.335 126.001C313.551 120.914 323.042 115.251 329.211 110.285M302.335 255.535C316.169 255.618 344.835 257.185 348.835 262.785M114.579 255.785C97.8312 256.118 63.4354 258.885 59.8354 267.285M83.3354 293.285C96.3354 302.118 131.935 319.385 170.335 317.785M256.335 315.285C273.669 313.285 310.335 307.785 318.335 301.785M292.835 95.285C303.586 97.285 325.912 103.085 329.211 110.285M324.835 142.785C325.002 162.452 318.435 213.385 290.835 259.785M276.335 274.785L284.335 266.285M128.835 274.285L112.335 278.785C111.835 279.452 111.235 280.685 112.835 280.285C114.435 279.885 124.835 277.452 129.835 276.285L128.835 274.285Z" stroke="#AF9283" stroke-width="4"/>
</svg>
